<?xml version="1.0" encoding="UTF-8" standalone="no"?>
<!DOCTYPE svg PUBLIC "-//W3C//DTD SVG 1.1//EN" "http://www.w3.org/Graphics/SVG/1.1/DTD/svg11.dtd">
<svg width="100%" height="100%" viewBox="0 0 1749 2481" version="1.1" xmlns="http://www.w3.org/2000/svg" xmlns:xlink="http://www.w3.org/1999/xlink" xml:space="preserve" xmlns:serif="http://www.serif.com/" style="fill-rule:evenodd;clip-rule:evenodd;stroke-linejoin:round;stroke-miterlimit:2;">
    <g transform="matrix(11.2902,0,0,11.2902,825.607,1240.16)">
        <path d="M0,0.01C-0.003,2.331 1.895,4.263 4.218,4.303C6.528,4.342 8.577,2.315 8.571,-0.008C8.566,-2.3 6.632,-4.248 4.318,-4.289C1.961,-4.332 0.003,-2.383 0,0.01M-7.595,-11.922C-7.695,-16.685 -11.681,-20.625 -16.298,-20.525C-21.07,-20.423 -25.036,-16.436 -24.932,-11.845C-24.824,-7 -20.807,-3.031 -16.164,-3.182C-11.358,-3.339 -7.497,-7.276 -7.595,-11.922M12.887,23.673C12.872,18.89 9.018,15.058 4.233,15.066C-0.525,15.074 -4.373,18.95 -4.367,23.731C-4.363,28.496 -0.488,32.343 4.293,32.331C9.081,32.319 12.904,28.468 12.887,23.673M-16.367,20.515C-11.706,20.62 -7.742,16.766 -7.598,11.986C-7.457,7.304 -11.322,3.252 -16.214,3.212C-20.864,3.174 -24.81,6.656 -24.893,11.778C-24.972,16.66 -21.189,20.333 -16.367,20.515M33.443,-11.694C33.554,-16.438 29.71,-20.392 24.859,-20.524C20.202,-20.653 16.234,-16.701 16.132,-11.833C16.035,-7.238 20.024,-3.247 24.781,-3.179C29.375,-3.113 33.332,-7.004 33.443,-11.694M33.446,11.828C33.403,7.121 29.534,3.209 24.889,3.176C20.165,3.144 16.132,7.094 16.126,11.754C16.122,16.567 20.088,20.57 24.812,20.518C29.575,20.464 33.488,16.527 33.446,11.828M4.324,-32.325C-0.477,-32.345 -4.356,-28.525 -4.368,-23.765C-4.382,-18.965 -0.565,-15.1 4.203,-15.085C9.019,-15.07 12.859,-18.855 12.886,-23.644C12.915,-28.449 9.11,-32.306 4.324,-32.325M-27.974,-0.544C-28.048,-2.951 -28.968,-5.593 -30.999,-7.772C-31.565,-8.378 -31.747,-8.893 -31.511,-9.726C-29.724,-16.01 -26.583,-21.495 -22.006,-26.164C-21.495,-26.685 -21.049,-26.859 -20.273,-26.686C-14.273,-25.347 -8.496,-28.666 -6.619,-34.5C-6.38,-35.242 -6.047,-35.639 -5.249,-35.842C1.123,-37.463 7.475,-37.463 13.839,-35.807C14.532,-35.626 14.873,-35.316 15.093,-34.643C17.098,-28.551 22.686,-25.37 28.993,-26.732C29.571,-26.855 29.946,-26.744 30.344,-26.346C35.108,-21.57 38.335,-15.911 40.125,-9.418C40.271,-8.887 40.162,-8.49 39.772,-8.05C35.391,-3.08 35.382,3.082 39.753,8.025C40.178,8.506 40.247,8.93 40.089,9.502C38.326,15.921 35.13,21.509 30.45,26.251C29.989,26.718 29.55,26.858 28.894,26.715C22.704,25.37 17.064,28.605 15.1,34.626C14.885,35.285 14.573,35.634 13.869,35.816C7.462,37.473 1.074,37.46 -5.334,35.814C-6.188,35.595 -6.41,35.088 -6.635,34.404C-8.23,29.55 -12.763,26.284 -17.819,26.362C-18.594,26.374 -19.402,26.422 -20.131,26.656C-20.979,26.926 -21.504,26.678 -22.08,26.087C-26.583,21.463 -29.688,16.041 -31.486,9.85C-31.728,9.017 -31.637,8.444 -31.011,7.774C-28.988,5.607 -27.977,2.872 -27.974,-0.544" style="fill-rule:nonzero;"/>
    </g>
</svg>
